<svg width="200" height="36" viewBox="0 0 200 36" fill="none" xmlns="http://www.w3.org/2000/svg">
<path d="M4.184 0.431707L34.808 29.6157L35.384 35.4237L4.76 6.28771L4.184 0.431707ZM4.424 31.3437V34.7517H0.44V34.2717C0.44 34.2717 0.584 34.2717 0.872 34.2717C1.16 34.2717 1.32 34.2717 1.352 34.2717C2.152 34.2717 2.84 33.9837 3.416 33.4077C3.992 32.8317 4.28 32.1437 4.28 31.3437H4.424ZM11.144 31.3437C11.144 32.1437 11.432 32.8317 12.008 33.4077C12.584 33.9837 13.272 34.2717 14.072 34.2717C14.104 34.2717 14.264 34.2717 14.552 34.2717C14.84 34.2717 14.984 34.2717 14.984 34.2717V34.7517H11V31.3437H11.144ZM4.184 0.431707L11.096 7.77571L11.144 34.7517H4.28V6.43171C4.28 4.63971 4.184 3.19971 3.992 2.11171C3.8 0.991708 3.704 0.431707 3.704 0.431707H4.184ZM35.24 1.15171V29.2797C35.24 30.4637 35.288 31.5357 35.384 32.4957C35.48 33.4237 35.576 34.1437 35.672 34.6557C35.768 35.1677 35.816 35.4237 35.816 35.4237H35.384L28.424 27.6477V1.15171H35.24ZM39.08 1.15171V1.63171C39.08 1.63171 38.936 1.63171 38.648 1.63171C38.36 1.63171 38.216 1.63171 38.216 1.63171C37.416 1.63171 36.728 1.91971 36.152 2.49571C35.576 3.03971 35.272 3.72771 35.24 4.55971H35.096V1.15171H39.08ZM24.536 1.15171H28.52V4.55971H28.424C28.392 3.72771 28.088 3.03971 27.512 2.49571C26.968 1.91971 26.28 1.63171 25.448 1.63171C25.448 1.63171 25.304 1.63171 25.016 1.63171C24.728 1.63171 24.568 1.63171 24.536 1.63171V1.15171ZM52.6933 1.15171V34.7517H45.4933V1.15171H52.6933ZM63.5893 17.1837V19.1997H52.5493V17.1837H63.5893ZM65.9413 1.15171V3.21571H52.5493V1.15171H65.9413ZM63.5893 19.1037V23.7117H63.1093V23.3277C63.1093 22.1437 62.7253 21.1677 61.9573 20.3997C61.1893 19.6317 60.2133 19.2317 59.0293 19.1997V19.1037H63.5893ZM63.5893 12.6717V17.2797H59.0293V17.1837C60.2133 17.1517 61.1893 16.7517 61.9573 15.9837C62.7253 15.1837 63.1093 14.1917 63.1093 13.0077V12.6717H63.5893ZM65.9413 3.07171V8.39971H65.4613V7.91971C65.4613 6.47971 65.0293 5.34371 64.1653 4.51171C63.3333 3.64771 62.1973 3.21571 60.7573 3.21571V3.07171H65.9413ZM65.9413 0.287706V1.67971L60.0853 1.15171C60.7893 1.15171 61.5253 1.10371 62.2933 1.00771C63.0933 0.911708 63.8293 0.799707 64.5013 0.671707C65.1733 0.543707 65.6533 0.415707 65.9413 0.287706ZM45.6373 31.2477V34.7517H41.7973V34.2717C41.7973 34.2717 41.8933 34.2717 42.0853 34.2717C42.3093 34.2717 42.4213 34.2717 42.4213 34.2717C43.2533 34.2717 43.9573 33.9837 44.5333 33.4077C45.1413 32.7997 45.4613 32.0797 45.4933 31.2477H45.6373ZM45.6373 4.65571H45.4933C45.4613 3.82371 45.1413 3.11971 44.5333 2.54371C43.9573 1.93571 43.2533 1.63171 42.4213 1.63171C42.4213 1.63171 42.3093 1.63171 42.0853 1.63171C41.8933 1.63171 41.7973 1.63171 41.7973 1.63171V1.15171H45.6373V4.65571ZM52.5493 31.2477H52.6933C52.7253 32.0797 53.0293 32.7997 53.6053 33.4077C54.2133 33.9837 54.9333 34.2717 55.7653 34.2717C55.7653 34.2717 55.8613 34.2717 56.0533 34.2717C56.2453 34.2717 56.3573 34.2717 56.3893 34.2717V34.7517H52.5493V31.2477ZM88.007 1.29571V34.7517H80.807V1.29571H88.007ZM99.767 1.10371V3.11971H69.047V1.10371H99.767ZM99.767 2.97571V8.63971L99.287 8.59171V8.06371C99.287 6.55971 98.839 5.37571 97.943 4.51171C97.079 3.61571 95.895 3.15171 94.391 3.11971V2.97571H99.767ZM99.767 0.239707V1.63171L93.911 1.10371C94.615 1.10371 95.351 1.05571 96.119 0.959706C96.919 0.863708 97.655 0.751708 98.327 0.623708C98.999 0.495708 99.479 0.367707 99.767 0.239707ZM80.951 31.2477V34.7517H77.111V34.2717C77.111 34.2717 77.207 34.2717 77.399 34.2717C77.623 34.2717 77.735 34.2717 77.735 34.2717C78.567 34.2717 79.271 33.9837 79.847 33.4077C80.455 32.7997 80.775 32.0797 80.807 31.2477H80.951ZM87.863 31.2477H88.007C88.039 32.0797 88.343 32.7997 88.919 33.4077C89.527 33.9837 90.247 34.2717 91.079 34.2717C91.079 34.2717 91.175 34.2717 91.367 34.2717C91.591 34.2717 91.703 34.2717 91.703 34.2717V34.7517H87.863V31.2477ZM74.375 2.97571V3.11971C72.903 3.15171 71.719 3.61571 70.823 4.51171C69.959 5.37571 69.527 6.55971 69.527 8.06371V8.59171L69.047 8.63971V2.97571H74.375ZM69.047 0.239707C69.367 0.367707 69.847 0.495708 70.487 0.623708C71.159 0.751708 71.895 0.863708 72.695 0.959706C73.495 1.05571 74.231 1.10371 74.903 1.10371L69.047 1.63171V0.239707Z" fill="white"/>
<path d="M125.687 0.479707C126.327 0.479707 127.111 0.511707 128.039 0.575708C128.999 0.639708 129.975 0.735707 130.967 0.863708C131.991 0.959708 132.871 1.07171 133.607 1.19971C134.375 1.29571 134.903 1.40771 135.191 1.53571L134.615 8.01571H134.135C134.135 6.35171 133.511 5.02371 132.263 4.03171C131.047 3.00771 129.415 2.49571 127.367 2.49571C125.511 2.49571 124.007 2.94371 122.855 3.83971C121.735 4.73571 121.143 5.82371 121.079 7.10371C121.047 8.06371 121.351 8.89571 121.991 9.59971C122.631 10.3037 123.447 10.9597 124.439 11.5677L133.607 17.5197C135.079 18.3517 136.183 19.4397 136.919 20.7837C137.687 22.1277 138.023 23.6957 137.927 25.4877C137.767 28.6237 136.567 31.0717 134.327 32.8317C132.087 34.5597 129.047 35.4237 125.207 35.4237C123.799 35.4237 122.423 35.2957 121.079 35.0397C119.767 34.8157 118.599 34.4957 117.575 34.0797C116.551 33.6317 115.735 33.1037 115.127 32.4957C114.871 31.7917 114.759 30.9437 114.791 29.9517C114.823 28.9597 114.967 27.9517 115.223 26.9277C115.511 25.9037 115.863 25.0557 116.279 24.3837H116.711C116.583 26.0157 116.871 27.5357 117.575 28.9437C118.311 30.3197 119.367 31.4237 120.743 32.2557C122.151 33.0557 123.815 33.4397 125.735 33.4077C127.847 33.3757 129.479 32.8477 130.631 31.8237C131.783 30.7677 132.359 29.5037 132.359 28.0317C132.359 27.0397 132.055 26.1437 131.447 25.3437C130.871 24.5437 129.911 23.7757 128.567 23.0397L120.167 17.4717C118.471 16.5117 117.239 15.2797 116.471 13.7757C115.703 12.2717 115.399 10.6397 115.559 8.87971C115.719 7.21571 116.215 5.75971 117.047 4.51171C117.879 3.23171 119.015 2.23971 120.455 1.53571C121.927 0.831707 123.671 0.479707 125.687 0.479707ZM135.239 0.959706L135.143 1.96771H129.479V0.959706H135.239ZM151.76 5.95171V34.7517H144.848V5.95171H151.76ZM162.992 32.8317L164.096 34.7517H151.664V32.8317H162.992ZM161.36 19.5357V21.4557H151.664V19.5357H161.36ZM163.52 5.95171V7.87171H151.664V5.95171H163.52ZM166.064 25.9197L164.24 34.7517H155.936L157.424 32.8317C158.8 32.8317 160.016 32.5597 161.072 32.0157C162.16 31.4397 163.088 30.6397 163.856 29.6157C164.624 28.5597 165.216 27.3277 165.632 25.9197H166.064ZM161.36 21.3597V25.5837H160.88V25.1997C160.88 24.1437 160.544 23.2637 159.872 22.5597C159.232 21.8557 158.352 21.4877 157.232 21.4557V21.3597H161.36ZM161.36 15.4077V19.6317H157.232V19.5357C158.352 19.5037 159.232 19.1357 159.872 18.4317C160.544 17.6957 160.88 16.7997 160.88 15.7437V15.4077H161.36ZM163.52 7.77571V12.8637H163.04V12.4317C163.04 11.0237 162.656 9.91971 161.888 9.11971C161.152 8.31971 160.08 7.90371 158.672 7.87171V7.77571H163.52ZM163.52 5.23171V6.38371L158.48 5.95171C159.408 5.95171 160.384 5.87171 161.408 5.71171C162.432 5.51971 163.136 5.35971 163.52 5.23171ZM144.944 31.7277L145.184 34.7517H141.632V34.2717C141.632 34.2717 141.728 34.2717 141.92 34.2717C142.112 34.2717 142.224 34.2717 142.256 34.2717C142.96 34.2717 143.552 34.0317 144.032 33.5517C144.544 33.0397 144.816 32.4317 144.848 31.7277H144.944ZM144.944 8.97571H144.848C144.816 8.23971 144.544 7.63171 144.032 7.15171C143.552 6.67171 142.96 6.43171 142.256 6.43171C142.224 6.43171 142.112 6.43171 141.92 6.43171C141.728 6.43171 141.632 6.43171 141.632 6.43171V5.95171H145.184L144.944 8.97571ZM182.406 4.65571L196.614 34.5117H188.502L179.574 13.4397L182.406 4.65571ZM173.382 31.5837C173.03 32.4477 173.078 33.1197 173.526 33.5997C173.974 34.0477 174.47 34.2717 175.014 34.2717H175.398V34.7517H165.798V34.2717C165.798 34.2717 165.862 34.2717 165.99 34.2717C166.118 34.2717 166.182 34.2717 166.182 34.2717C166.822 34.2717 167.494 34.0797 168.198 33.6957C168.902 33.2797 169.478 32.5757 169.926 31.5837H173.382ZM182.406 4.65571L182.502 10.4157L172.086 34.6077H168.534L179.766 10.4637C179.83 10.2717 179.974 9.93571 180.198 9.45571C180.422 8.94371 180.662 8.38371 180.918 7.77571C181.174 7.13571 181.414 6.54371 181.638 5.99971C181.862 5.42371 181.99 4.97571 182.022 4.65571H182.406ZM186.582 25.3437V27.2157H174.342V25.3437H186.582ZM187.302 31.5837H195.222C195.702 32.5757 196.294 33.2797 196.998 33.6957C197.702 34.0797 198.374 34.2717 199.014 34.2717C199.014 34.2717 199.078 34.2717 199.206 34.2717C199.334 34.2717 199.398 34.2717 199.398 34.2717V34.7517H185.286V34.2717H185.67C186.214 34.2717 186.71 34.0477 187.158 33.5997C187.606 33.1197 187.654 32.4477 187.302 31.5837Z" fill="url(#paint0_linear_2_309)"/>
<defs>
<linearGradient id="paint0_linear_2_309" x1="107.203" y1="20.7517" x2="220.875" y2="20.7517" gradientUnits="userSpaceOnUse">
<stop stop-color="#627EEA"/>
<stop offset="1" stop-color="#EC4467"/>
</linearGradient>
</defs>
</svg>
